<svg width="141" height="65" viewBox="0 0 141 65" fill="none" xmlns="http://www.w3.org/2000/svg">
<path d="M52.4827 1L70.4007 32.5549H34.5648L52.4827 1Z" fill="#2D2D2E" stroke="#F1F1F1" stroke-width="0.944162"/>
<path d="M34.5648 32.4451L70.4006 32.4451L52.4827 64L34.5648 32.4451Z" fill="#2D2D2E" stroke="#F1F1F1" stroke-width="0.944162"/>
<path d="M70.4007 32.4451L106.237 32.4451L88.3186 64L70.4007 32.4451Z" fill="#2D2D2E" stroke="#F1F1F1" stroke-width="0.944162"/>
<path d="M70.4006 32.737L52.4827 1.18216L88.3185 1.18216L70.4006 32.737Z" fill="#2D2D2E" stroke="#F1F1F1" stroke-width="0.944162"/>
<path d="M70.4007 32.3353L88.3186 63.8902H52.4827L70.4007 32.3353Z" fill="#2D2D2E" stroke="#F1F1F1" stroke-width="0.944162"/>
<path d="M88.3186 1.18216L106.236 32.737H70.4006L88.3186 1.18216Z" fill="#2D2D2E" stroke="#F1F1F1" stroke-width="0.944162"/>
<path d="M2.87468 25.3383C2.87468 24.9581 3.0136 24.6437 3.29145 24.3951C3.56929 24.1319 3.92025 24.0003 4.34433 24.0003H10.201C11.7803 24.0003 13.0014 24.417 13.8642 25.2506C14.7416 26.0841 15.1803 27.254 15.1803 28.7602C15.1803 29.623 15.0048 30.3541 14.6538 30.9537C14.3029 31.5386 13.7691 32.0066 13.0526 32.3576V32.4234C14.3394 32.9937 14.9829 34.0758 14.9829 35.6698V37.3807C14.9829 38.0826 14.7343 38.6237 14.2371 39.0039C13.7399 39.3695 13.0087 39.5523 12.0436 39.5523V35.8014C12.0436 35.0263 11.89 34.456 11.5829 34.0904C11.2758 33.7248 10.8079 33.542 10.1791 33.542H5.77012V37.3807C5.77012 38.0972 5.52152 38.6383 5.02432 39.0039C4.54175 39.3695 3.8252 39.5523 2.87468 39.5523V25.3383ZM10.0475 31.0414C10.7494 31.0414 11.2905 30.844 11.6707 30.4492C12.0509 30.0397 12.241 29.4694 12.241 28.7383C12.241 27.2467 11.5098 26.5009 10.0475 26.5009H5.77012V31.0414H10.0475ZM23.5165 39.5523C22.3174 39.5523 21.2206 39.3183 20.2262 38.8504C19.2318 38.3678 18.4422 37.717 17.8572 36.8981C17.2869 36.0792 17.0018 35.1872 17.0018 34.222V29.1112C17.0018 28.146 17.2869 27.2613 17.8572 26.457C18.4422 25.6381 19.2318 24.9947 20.2262 24.5267C21.2206 24.0441 22.3174 23.8028 23.5165 23.8028C24.7156 23.8028 25.8124 24.0441 26.8068 24.5267C27.8158 24.9947 28.6055 25.6381 29.1758 26.457C29.7607 27.2613 30.0532 28.146 30.0532 29.1112V34.222C30.0532 35.1872 29.7607 36.0792 29.1758 36.8981C28.6055 37.717 27.8158 38.3678 26.8068 38.8504C25.8124 39.3183 24.7156 39.5523 23.5165 39.5523ZM23.5165 36.9859C24.6133 36.9859 25.4907 36.73 26.1487 36.2181C26.8068 35.6917 27.1358 35.0117 27.1358 34.1782V29.177C27.1358 28.3288 26.8068 27.6488 26.1487 27.137C25.4907 26.6105 24.6133 26.3473 23.5165 26.3473C22.4344 26.3473 21.5643 26.6105 20.9062 27.137C20.2482 27.6488 19.9191 28.3288 19.9191 29.177V34.1782C19.9191 35.0117 20.2482 35.6917 20.9062 36.2181C21.5643 36.73 22.4344 36.9859 23.5165 36.9859ZM33.7141 39.3549C33.29 39.3549 32.9244 39.2013 32.6174 38.8942C32.3249 38.5871 32.1786 38.2215 32.1786 37.7975V25.9744C32.1786 25.2433 32.4199 24.7022 32.9025 24.3512C33.3851 23.9856 34.1236 23.8028 35.118 23.8028V36.8104H41.0404C41.7277 36.8104 42.2469 37.0297 42.5978 37.4684C42.9488 37.8925 43.1243 38.5213 43.1243 39.3549H33.7141ZM46.5667 39.3549C46.1426 39.3549 45.7771 39.2013 45.47 38.8942C45.1775 38.5871 45.0313 38.2215 45.0313 37.7975V25.9744C45.0313 25.2433 45.2726 24.7022 45.7551 24.3512C46.2377 23.9856 46.9762 23.8028 47.9706 23.8028V36.8104H53.8931C54.5804 36.8104 55.0995 37.0297 55.4505 37.4684C55.8014 37.8925 55.9769 38.5213 55.9769 39.3549H46.5667ZM62.766 39.5523C61.4645 39.5523 60.3019 39.3037 59.2783 38.8065C58.2693 38.3093 57.4796 37.6147 56.9093 36.7226C56.339 35.8306 56.0538 34.8143 56.0538 33.6737V29.6376C56.0538 28.497 56.3317 27.4879 56.8874 26.6105C57.4577 25.7185 58.24 25.0312 59.2344 24.5486C60.2288 24.0514 61.3695 23.8028 62.6563 23.8028C63.9432 23.8028 65.0838 24.0003 66.0782 24.3951C67.0872 24.7753 67.8696 25.3164 68.4253 26.0183C68.9809 26.7056 69.2588 27.4953 69.2588 28.3873C69.2588 28.9284 69.076 29.3597 68.7104 29.6815C68.3595 29.9886 67.8842 30.1421 67.2846 30.1421C66.9922 30.1421 66.6704 30.0982 66.3195 30.0105C66.3487 29.6595 66.3634 29.3159 66.3634 28.9795C66.3634 28.2045 66.0197 27.5757 65.3324 27.0931C64.6451 26.6105 63.7531 26.3693 62.6563 26.3693C61.5742 26.3693 60.6895 26.6764 60.0022 27.2905C59.3295 27.8901 58.9932 28.6724 58.9932 29.6376V33.6737C58.9932 34.6534 59.3441 35.4504 60.046 36.0646C60.748 36.6788 61.6546 36.9859 62.766 36.9859C63.8628 36.9859 64.7548 36.7446 65.4421 36.262C66.1294 35.7794 66.473 35.1579 66.473 34.3975C66.473 34.0466 66.4584 33.7102 66.4292 33.3885C66.7947 33.3154 67.1018 33.2788 67.3504 33.2788C67.9646 33.2788 68.4545 33.4397 68.8201 33.7614C69.1857 34.0831 69.3685 34.5218 69.3685 35.0775C69.3685 35.9403 69.0906 36.7153 68.5349 37.4026C67.9792 38.0753 67.1969 38.6018 66.1879 38.982C65.1935 39.3622 64.0529 39.5523 62.766 39.5523ZM71.4862 25.3383C71.4862 24.9581 71.6252 24.6437 71.903 24.3951C72.1808 24.1319 72.5318 24.0003 72.9559 24.0003H78.8126C80.3919 24.0003 81.613 24.417 82.4757 25.2506C83.3531 26.0841 83.7918 27.254 83.7918 28.7602C83.7918 29.623 83.6164 30.3541 83.2654 30.9537C82.9144 31.5386 82.3807 32.0066 81.6641 32.3576V32.4234C82.951 32.9937 83.5944 34.0758 83.5944 35.6698V37.3807C83.5944 38.0826 83.3458 38.6237 82.8486 39.0039C82.3514 39.3695 81.6203 39.5523 80.6551 39.5523V35.8014C80.6551 35.0263 80.5016 34.456 80.1945 34.0904C79.8874 33.7248 79.4194 33.542 78.7906 33.542H74.3817V37.3807C74.3817 38.0972 74.1331 38.6383 73.6359 39.0039C73.1533 39.3695 72.4368 39.5523 71.4862 39.5523V25.3383ZM78.659 31.0414C79.3609 31.0414 79.902 30.844 80.2822 30.4492C80.6624 30.0397 80.8525 29.4694 80.8525 28.7383C80.8525 27.2467 80.1214 26.5009 78.659 26.5009H74.3817V31.0414H78.659ZM86.1596 25.3383C86.1596 24.9727 86.2986 24.6583 86.5764 24.3951C86.8689 24.1319 87.2198 24.0003 87.6293 24.0003H97.4124C97.4124 24.8777 97.2588 25.5211 96.9517 25.9306C96.6593 26.3254 96.1767 26.5228 95.504 26.5228H89.099V30.3395H94.9337C94.9337 31.2169 94.7802 31.8604 94.4731 32.2698C94.1806 32.6646 93.698 32.8621 93.0253 32.8621H89.099V36.8323H95.9647C96.6227 36.8323 97.098 37.037 97.3904 37.4465C97.6975 37.8413 97.8511 38.4775 97.8511 39.3549H87.6293C87.2198 39.3549 86.8689 39.2306 86.5764 38.982C86.2986 38.7187 86.1596 38.397 86.1596 38.0168V25.3383ZM100.977 39.5523C100.348 39.4792 99.8507 39.2598 99.4851 38.8942C99.1341 38.5286 98.9586 38.068 98.9586 37.5123C98.9586 37.0882 99.061 36.6495 99.2657 36.1962L104.289 24.768C104.567 24.1246 105.049 23.8028 105.737 23.8028C106.409 23.8028 106.885 24.1246 107.162 24.768L112.186 36.1962C112.39 36.6788 112.493 37.1175 112.493 37.5123C112.493 38.068 112.31 38.5286 111.944 38.8942C111.593 39.2598 111.096 39.4792 110.453 39.5523L108.61 35.3846H102.841L100.977 39.5523ZM107.711 32.884L105.298 26.8738L105.035 26.9834L105.561 28.3434L103.719 32.884H107.711ZM116.75 26.5447H111.463C111.463 24.8484 112.231 24.0003 113.767 24.0003H124.975C124.975 25.6966 124.2 26.5447 122.65 26.5447H119.689V37.3807C119.689 38.0826 119.44 38.6237 118.943 39.0039C118.446 39.3695 117.715 39.5523 116.75 39.5523V26.5447ZM126.86 25.3383C126.86 24.9727 126.999 24.6583 127.276 24.3951C127.569 24.1319 127.92 24.0003 128.329 24.0003H138.112C138.112 24.8777 137.959 25.5211 137.652 25.9306C137.359 26.3254 136.877 26.5228 136.204 26.5228H129.799V30.3395H135.634C135.634 31.2169 135.48 31.8604 135.173 32.2698C134.881 32.6646 134.398 32.8621 133.725 32.8621H129.799V36.8323H136.665C137.323 36.8323 137.798 37.037 138.09 37.4465C138.397 37.8413 138.551 38.4775 138.551 39.3549H128.329C127.92 39.3549 127.569 39.2306 127.276 38.982C126.999 38.7187 126.86 38.397 126.86 38.0168V25.3383Z" fill="#F1C321"/>
<path d="M3.29145 24.3951L3.44515 24.5669L3.44991 24.5624L3.29145 24.3951ZM13.8642 25.2506L13.7041 25.4163L13.7055 25.4176L13.8642 25.2506ZM14.6538 30.9537L14.8514 31.0723L14.8527 31.0701L14.6538 30.9537ZM13.0526 32.3576L12.9512 32.1506L12.8222 32.2138V32.3576H13.0526ZM13.0526 32.4234H12.8222V32.5733L12.9592 32.634L13.0526 32.4234ZM14.2371 39.0039L14.3736 39.1896L14.377 39.1869L14.2371 39.0039ZM12.0436 39.5523H11.8132V39.7827H12.0436V39.5523ZM11.5829 34.0904L11.7594 33.9422L11.5829 34.0904ZM5.77012 33.542V33.3116H5.53971V33.542H5.77012ZM5.02432 39.0039L4.88781 38.8182L4.88519 38.8202L5.02432 39.0039ZM2.87468 39.5523H2.64427V39.7827H2.87468V39.5523ZM11.6707 30.4492L11.8367 30.609L11.8395 30.606L11.6707 30.4492ZM5.77012 26.5009V26.2705H5.53971V26.5009H5.77012ZM5.77012 31.0414H5.53971V31.2719H5.77012V31.0414ZM3.10509 25.3383C3.10509 25.0222 3.21718 24.7707 3.44508 24.5668L3.13781 24.2234C2.81002 24.5167 2.64427 24.894 2.64427 25.3383H3.10509ZM3.44991 24.5624C3.68018 24.3442 3.97228 24.2307 4.34433 24.2307V23.7699C3.86822 23.7699 3.4584 23.9195 3.13298 24.2278L3.44991 24.5624ZM4.34433 24.2307H10.201V23.7699H4.34433V24.2307ZM10.201 24.2307C11.7401 24.2307 12.8965 24.6361 13.7041 25.4163L14.0243 25.0849C13.1063 24.198 11.8206 23.7699 10.201 23.7699V24.2307ZM13.7055 25.4176C14.5264 26.1975 14.9499 27.3007 14.9499 28.7602H15.4107C15.4107 27.2073 14.9568 25.9707 14.0229 25.0835L13.7055 25.4176ZM14.9499 28.7602C14.9499 29.5919 14.7808 30.2807 14.455 30.8373L14.8527 31.0701C15.2288 30.4276 15.4107 29.6541 15.4107 28.7602H14.9499ZM14.4563 30.8352C14.1318 31.3759 13.6348 31.8158 12.9512 32.1506L13.1539 32.5645C13.9035 32.1973 14.4739 31.7014 14.8514 31.0722L14.4563 30.8352ZM12.8222 32.3576V32.4234H13.283V32.3576H12.8222ZM12.9592 32.634C13.5644 32.9022 14.0078 33.2852 14.3023 33.7804C14.5978 34.2776 14.7525 34.9033 14.7525 35.6698H15.2133C15.2133 34.8422 15.0462 34.1299 14.6983 33.5449C14.3494 32.958 13.8277 32.5148 13.1459 32.2127L12.9592 32.634ZM14.7525 35.6698V37.3807H15.2133V35.6698H14.7525ZM14.7525 37.3807C14.7525 38.0208 14.5298 38.49 14.0971 38.8209L14.377 39.1869C14.9387 38.7574 15.2133 38.1444 15.2133 37.3807H14.7525ZM14.1006 38.8183C13.6596 39.1425 12.9854 39.3219 12.0436 39.3219V39.7827C13.032 39.7827 13.8201 39.5965 14.3736 39.1895L14.1006 38.8183ZM12.274 39.5523V35.8014H11.8132V39.5523H12.274ZM12.274 35.8014C12.274 35.0036 12.1173 34.3684 11.7594 33.9422L11.4065 34.2386C11.6627 34.5437 11.8132 35.049 11.8132 35.8014H12.274ZM11.7594 33.9422C11.3956 33.5091 10.8529 33.3116 10.1791 33.3116V33.7725C10.7629 33.7725 11.1561 33.9405 11.4065 34.2386L11.7594 33.9422ZM10.1791 33.3116H5.77012V33.7725H10.1791V33.3116ZM5.53971 33.542V37.3807H6.00053V33.542H5.53971ZM5.53971 37.3807C5.53971 38.0374 5.31591 38.5035 4.88783 38.8183L5.16081 39.1895C5.72712 38.7731 6.00053 38.1571 6.00053 37.3807H5.53971ZM4.88519 38.8202C4.45973 39.1426 3.80172 39.3219 2.87468 39.3219V39.7827C3.84868 39.7827 4.62377 39.5964 5.16346 39.1876L4.88519 38.8202ZM3.10509 39.5523V25.3383H2.64427V39.5523H3.10509ZM10.0475 31.2719C10.7935 31.2719 11.4016 31.0607 11.8366 30.609L11.5047 30.2894C11.1793 30.6273 10.7053 30.811 10.0475 30.811V31.2719ZM11.8395 30.606C12.2703 30.1421 12.4714 29.5091 12.4714 28.7383H12.0106C12.0106 29.4297 11.8315 29.9374 11.5018 30.2924L11.8395 30.606ZM12.4714 28.7383C12.4714 27.9581 12.2802 27.3304 11.8571 26.8989C11.4333 26.4666 10.8153 26.2705 10.0475 26.2705V26.7313C10.742 26.7313 11.2208 26.9081 11.5281 27.2215C11.8362 27.5358 12.0106 28.0268 12.0106 28.7383H12.4714ZM10.0475 26.2705H5.77012V26.7313H10.0475V26.2705ZM5.53971 26.5009V31.0414H6.00053V26.5009H5.53971ZM5.77012 31.2719H10.0475V30.811H5.77012V31.2719ZM20.2262 38.8504L20.1256 39.0577L20.1281 39.0588L20.2262 38.8504ZM17.8572 36.8981L17.6681 37.0298L17.6697 37.032L17.8572 36.8981ZM17.8572 26.457L17.6697 26.3231L17.6693 26.3237L17.8572 26.457ZM20.2262 24.5267L20.3243 24.7352L20.3268 24.734L20.2262 24.5267ZM26.8068 24.5267L26.7062 24.734L26.7098 24.7357L26.8068 24.5267ZM29.1758 26.457L28.9866 26.5887L28.9894 26.5925L29.1758 26.457ZM29.1758 36.8981L28.9883 36.7642L28.9867 36.7664L29.1758 36.8981ZM26.8068 38.8504L26.9049 39.0588L26.9062 39.0582L26.8068 38.8504ZM26.1487 36.2181L26.2902 36.4L26.2927 36.3981L26.1487 36.2181ZM26.1487 27.137L26.0048 27.3169L26.0073 27.3189L26.1487 27.137ZM20.9062 27.137L21.0477 27.3189L21.0502 27.3169L20.9062 27.137ZM20.9062 36.2181L20.7623 36.3981L20.7648 36.4L20.9062 36.2181ZM23.5165 39.3219C22.3482 39.3219 21.2853 39.0941 20.3243 38.6419L20.1281 39.0588C21.1559 39.5425 22.2866 39.7827 23.5165 39.7827V39.3219ZM20.3268 38.6431C19.3636 38.1756 18.6051 37.5488 18.0447 36.7642L17.6697 37.032C18.2792 37.8853 19.1001 38.5599 20.1256 39.0576L20.3268 38.6431ZM18.0463 36.7664C17.5019 35.9848 17.2322 35.1384 17.2322 34.222H16.7714C16.7714 35.2359 17.0719 36.1736 17.6682 37.0298L18.0463 36.7664ZM17.2322 34.222V29.1112H16.7714V34.222H17.2322ZM17.2322 29.1112C17.2322 28.1948 17.5019 27.3565 18.0452 26.5903L17.6693 26.3237C17.072 27.1661 16.7714 28.0972 16.7714 29.1112H17.2322ZM18.0447 26.5909C18.6047 25.807 19.3623 25.1879 20.3243 24.7352L20.1281 24.3182C19.1014 24.8014 18.2797 25.4692 17.6697 26.3231L18.0447 26.5909ZM20.3268 24.734C21.2873 24.2679 22.3492 24.0333 23.5165 24.0333V23.5724C22.2855 23.5724 21.154 23.8204 20.1256 24.3194L20.3268 24.734ZM23.5165 24.0333C24.6838 24.0333 25.7457 24.2679 26.7062 24.734L26.9074 24.3194C25.879 23.8204 24.7475 23.5724 23.5165 23.5724V24.0333ZM26.7098 24.7357C27.6862 25.1885 28.4423 25.807 28.9867 26.5887L29.3648 26.3253C28.7686 25.4692 27.9454 24.8008 26.9037 24.3177L26.7098 24.7357ZM28.9894 26.5925C29.5466 27.3587 29.8228 28.1963 29.8228 29.1112H30.2836C30.2836 28.0957 29.9748 27.1639 29.3621 26.3215L28.9894 26.5925ZM29.8228 29.1112V34.222H30.2836V29.1112H29.8228ZM29.8228 34.222C29.8228 35.137 29.5466 35.9826 28.9883 36.7642L29.3633 37.032C29.9748 36.1758 30.2836 35.2373 30.2836 34.222H29.8228ZM28.9867 36.7664C28.4418 37.5488 27.6848 38.175 26.7074 38.6425L26.9062 39.0582C27.9467 38.5606 28.7691 37.8852 29.3648 37.0298L28.9867 36.7664ZM26.7087 38.6419C25.7477 39.0941 24.6848 39.3219 23.5165 39.3219V39.7827C24.7464 39.7827 25.8771 39.5425 26.9049 39.0588L26.7087 38.6419ZM23.5165 37.2163C24.6483 37.2163 25.5805 36.952 26.2902 36.4L26.0073 36.0363C25.4008 36.5079 24.5782 36.7555 23.5165 36.7555V37.2163ZM26.2927 36.3981C27.0047 35.8284 27.3662 35.0826 27.3662 34.1782H26.9054C26.9054 34.9408 26.6089 35.5549 26.0048 36.0382L26.2927 36.3981ZM27.3662 34.1782V29.177H26.9054V34.1782H27.3662ZM27.3662 29.177C27.3662 28.2591 27.0055 27.5115 26.2902 26.9551L26.0073 27.3189C26.6081 27.7861 26.9054 28.3985 26.9054 29.177H27.3662ZM26.2927 26.9571C25.5828 26.3892 24.6497 26.1169 23.5165 26.1169V26.5777C24.5769 26.5777 25.3985 26.8319 26.0048 27.3169L26.2927 26.9571ZM23.5165 26.1169C22.3971 26.1169 21.4716 26.3896 20.7623 26.9571L21.0502 27.3169C21.657 26.8315 22.4716 26.5777 23.5165 26.5777V26.1169ZM20.7648 26.9551C20.0494 27.5115 19.6887 28.2591 19.6887 29.177H20.1495C20.1495 28.3985 20.4469 27.7861 21.0477 27.3189L20.7648 26.9551ZM19.6887 29.177V34.1782H20.1495V29.177H19.6887ZM19.6887 34.1782C19.6887 35.0826 20.0503 35.8284 20.7623 36.3981L21.0502 36.0382C20.4461 35.5549 20.1495 34.9408 20.1495 34.1782H19.6887ZM20.7648 36.4C21.4739 36.9516 22.3985 37.2163 23.5165 37.2163V36.7555C22.4702 36.7555 21.6546 36.5083 21.0477 36.0363L20.7648 36.4ZM32.6174 38.8942L32.4505 39.0532L32.4544 39.0571L32.6174 38.8942ZM32.9025 24.3512L33.0381 24.5376L33.0416 24.5349L32.9025 24.3512ZM35.118 23.8028H35.3484V23.5724H35.118V23.8028ZM35.118 36.8104H34.8875V37.0408H35.118V36.8104ZM42.5978 37.4684L42.4179 37.6124L42.4203 37.6153L42.5978 37.4684ZM43.1243 39.3549V39.5853H43.3547V39.3549H43.1243ZM33.7141 39.1244C33.3528 39.1244 33.0453 38.9963 32.7803 38.7313L32.4544 39.0571C32.8036 39.4063 33.2273 39.5853 33.7141 39.5853V39.1244ZM32.7842 38.7353C32.5325 38.4711 32.4091 38.1624 32.4091 37.7975H31.9482C31.9482 38.2807 32.1172 38.7032 32.4505 39.0531L32.7842 38.7353ZM32.4091 37.7975V25.9744H31.9482V37.7975H32.4091ZM32.4091 25.9744C32.4091 25.2983 32.6287 24.8353 33.038 24.5376L32.767 24.1649C32.2112 24.5691 31.9482 25.1882 31.9482 25.9744H32.4091ZM33.0416 24.5349C33.4657 24.2136 34.1442 24.0333 35.118 24.0333V23.5724C34.1029 23.5724 33.3045 23.7576 32.7634 24.1676L33.0416 24.5349ZM34.8875 23.8028V36.8104H35.3484V23.8028H34.8875ZM35.118 37.0408H41.0404V36.58H35.118V37.0408ZM41.0404 37.0408C41.675 37.0408 42.1204 37.2405 42.4179 37.6124L42.7778 37.3245C42.3733 36.8189 41.7805 36.58 41.0404 36.58V37.0408ZM42.4203 37.6153C42.7234 37.9815 42.8939 38.5485 42.8939 39.3549H43.3547C43.3547 38.4941 43.1742 37.8035 42.7753 37.3215L42.4203 37.6153ZM43.1243 39.1244H33.7141V39.5853H43.1243V39.1244ZM45.47 38.8942L45.3031 39.0532L45.307 39.0571L45.47 38.8942ZM45.7551 24.3512L45.8907 24.5376L45.8943 24.5349L45.7551 24.3512ZM47.9706 23.8028H48.201V23.5724H47.9706V23.8028ZM47.9706 36.8104H47.7402V37.0408H47.9706V36.8104ZM55.4505 37.4684L55.2705 37.6124L55.2729 37.6153L55.4505 37.4684ZM55.9769 39.3549V39.5853H56.2073V39.3549H55.9769ZM46.5667 39.1244C46.2054 39.1244 45.8979 38.9963 45.6329 38.7313L45.307 39.0571C45.6562 39.4063 46.0799 39.5853 46.5667 39.5853V39.1244ZM45.6368 38.7353C45.3852 38.4711 45.2617 38.1624 45.2617 37.7975H44.8009C44.8009 38.2807 44.9698 38.7032 45.3031 39.0531L45.6368 38.7353ZM45.2617 37.7975V25.9744H44.8009V37.7975H45.2617ZM45.2617 25.9744C45.2617 25.2983 45.4813 24.8353 45.8906 24.5376L45.6196 24.1649C45.0638 24.5691 44.8009 25.1882 44.8009 25.9744H45.2617ZM45.8943 24.5349C46.3183 24.2136 46.9968 24.0333 47.9706 24.0333V23.5724C46.9555 23.5724 46.1571 23.7576 45.616 24.1676L45.8943 24.5349ZM47.7402 23.8028V36.8104H48.201V23.8028H47.7402ZM47.9706 37.0408H53.8931V36.58H47.9706V37.0408ZM53.8931 37.0408C54.5276 37.0408 54.9731 37.2405 55.2705 37.6124L55.6304 37.3245C55.2259 36.8189 54.6331 36.58 53.8931 36.58V37.0408ZM55.2729 37.6153C55.576 37.9815 55.7465 38.5485 55.7465 39.3549H56.2073C56.2073 38.4941 56.0268 37.8035 55.628 37.3215L55.2729 37.6153ZM55.9769 39.1244H46.5667V39.5853H55.9769V39.1244ZM59.2783 38.8065L59.1765 39.0132L59.1776 39.0137L59.2783 38.8065ZM56.9093 36.7226L57.1034 36.5985L57.1034 36.5985L56.9093 36.7226ZM56.8874 26.6105L56.6933 26.4864L56.6927 26.4873L56.8874 26.6105ZM59.2344 24.5486L59.335 24.7559L59.3375 24.7547L59.2344 24.5486ZM66.0782 24.3951L65.9932 24.6093L65.997 24.6107L66.0782 24.3951ZM68.4253 26.0183L68.2446 26.1613L68.2461 26.1632L68.4253 26.0183ZM68.7104 29.6815L68.8621 29.8549L68.8626 29.8544L68.7104 29.6815ZM66.3195 30.0105L66.0899 29.9914L66.0736 30.1865L66.2636 30.234L66.3195 30.0105ZM65.3324 27.0931L65.2 27.2817L65.2 27.2817L65.3324 27.0931ZM60.0022 27.2905L60.1555 27.4625L60.1557 27.4623L60.0022 27.2905ZM60.046 36.0646L59.8943 36.238L59.8943 36.238L60.046 36.0646ZM65.4421 36.262L65.3097 36.0734L65.3097 36.0734L65.4421 36.262ZM66.4292 33.3885L66.384 33.1626L66.181 33.2032L66.1997 33.4094L66.4292 33.3885ZM68.8201 33.7614L68.9723 33.5884L68.9723 33.5884L68.8201 33.7614ZM68.5349 37.4026L68.7126 37.5494L68.7141 37.5475L68.5349 37.4026ZM66.1879 38.982L66.1066 38.7663L66.1056 38.7667L66.1879 38.982ZM62.766 39.3219C61.4944 39.3219 60.367 39.0791 59.379 38.5992L59.1776 39.0137C60.2369 39.5282 61.4347 39.7827 62.766 39.7827V39.3219ZM59.3802 38.5998C58.4064 38.12 57.6497 37.4529 57.1034 36.5985L56.7152 36.8468C57.3096 37.7764 58.1322 38.4986 59.1765 39.0132L59.3802 38.5998ZM57.1034 36.5985C56.5587 35.7464 56.2843 34.7738 56.2843 33.6737H55.8234C55.8234 34.8547 56.1193 35.9148 56.7152 36.8468L57.1034 36.5985ZM56.2843 33.6737V29.6376H55.8234V33.6737H56.2843ZM56.2843 29.6376C56.2843 28.5362 56.552 27.5708 57.082 26.7338L56.6927 26.4873C56.1114 27.4051 55.8234 28.4578 55.8234 29.6376H56.2843ZM57.0815 26.7347C57.6279 25.8801 58.3771 25.2208 59.335 24.7559L59.1338 24.3414C58.103 24.8416 57.2875 25.557 56.6933 26.4864L57.0815 26.7347ZM59.3375 24.7547C60.2952 24.2759 61.3996 24.0333 62.6563 24.0333V23.5724C61.3393 23.5724 60.1625 23.827 59.1314 24.3426L59.3375 24.7547ZM62.6563 24.0333C63.9198 24.0333 65.0307 24.2271 65.9932 24.6092L66.1632 24.1809C65.1369 23.7734 63.9665 23.5724 62.6563 23.5724V24.0333ZM65.997 24.6107C66.9749 24.9792 67.7197 25.4983 68.2446 26.1613L68.6059 25.8753C68.0194 25.1345 67.1995 24.5714 66.1594 24.1795L65.997 24.6107ZM68.2461 26.1632C68.7683 26.809 69.0284 27.5475 69.0284 28.3873H69.4892C69.4892 27.4431 69.1936 26.6021 68.6044 25.8734L68.2461 26.1632ZM69.0284 28.3873C69.0284 28.8704 68.8682 29.2357 68.5582 29.5085L68.8626 29.8544C69.2838 29.4838 69.4892 28.9863 69.4892 28.3873H69.0284ZM68.5587 29.5081C68.2606 29.7689 67.8447 29.9117 67.2846 29.9117V30.3725C67.9236 30.3725 68.4583 30.2082 68.8621 29.8549L68.5587 29.5081ZM67.2846 29.9117C67.0148 29.9117 66.7122 29.8712 66.3754 29.787L66.2636 30.234C66.6287 30.3253 66.9695 30.3725 67.2846 30.3725V29.9117ZM66.5491 30.0296C66.5789 29.6726 66.5938 29.3226 66.5938 28.9795H66.1329C66.1329 29.3092 66.1186 29.6465 66.0899 29.9914L66.5491 30.0296ZM66.5938 28.9795C66.5938 28.1224 66.2075 27.426 65.4648 26.9045L65.2 27.2817C65.8319 27.7254 66.1329 28.2866 66.1329 28.9795H66.5938ZM65.4648 26.9045C64.7284 26.3875 63.7861 26.1388 62.6563 26.1388V26.5997C63.7201 26.5997 64.5618 26.8336 65.2 27.2817L65.4648 26.9045ZM62.6563 26.1388C61.528 26.1388 60.5854 26.4604 59.8486 27.1187L60.1557 27.4623C60.7936 26.8923 61.6204 26.5997 62.6563 26.5997V26.1388ZM59.8489 27.1185C59.1233 27.7652 58.7627 28.612 58.7627 29.6376H59.2236C59.2236 28.7329 59.5356 28.015 60.1555 27.4625L59.8489 27.1185ZM58.7627 29.6376V33.6737H59.2236V29.6376H58.7627ZM58.7627 33.6737C58.7627 34.7161 59.1396 35.5776 59.8943 36.238L60.1978 35.8912C59.5486 35.3232 59.2236 34.5908 59.2236 33.6737H58.7627ZM59.8943 36.238C60.646 36.8957 61.61 37.2163 62.766 37.2163V36.7555C61.6992 36.7555 60.8499 36.4618 60.1978 35.8912L59.8943 36.238ZM62.766 37.2163C63.8957 37.2163 64.8381 36.9676 65.5745 36.4506L65.3097 36.0734C64.6715 36.5215 63.8298 36.7555 62.766 36.7555V37.2163ZM65.5745 36.4506C66.3157 35.9301 66.7034 35.2417 66.7034 34.3975H66.2426C66.2426 35.0742 65.943 35.6287 65.3097 36.0734L65.5745 36.4506ZM66.7034 34.3975C66.7034 34.0402 66.6886 33.6969 66.6586 33.3676L66.1997 33.4094C66.2283 33.7236 66.2426 34.0529 66.2426 34.3975H66.7034ZM66.4743 33.6144C66.8316 33.543 67.1225 33.5092 67.3504 33.5092V33.0484C67.0812 33.0484 66.7578 33.0878 66.384 33.1626L66.4743 33.6144ZM67.3504 33.5092C67.9237 33.5092 68.3545 33.6586 68.6679 33.9344L68.9723 33.5884C68.5545 33.2208 68.0055 33.0484 67.3504 33.0484V33.5092ZM68.6679 33.9344C68.9765 34.2059 69.1381 34.5777 69.1381 35.0775H69.5989C69.5989 34.466 69.3949 33.9603 68.9723 33.5884L68.6679 33.9344ZM69.1381 35.0775C69.1381 35.8862 68.8792 36.6104 68.3558 37.2578L68.7141 37.5475C69.3021 36.8203 69.5989 35.9944 69.5989 35.0775H69.1381ZM68.3573 37.2559C67.8326 37.8911 67.0868 38.397 66.1066 38.7663L66.2691 39.1976C67.3069 38.8065 68.1259 38.2595 68.7126 37.5494L68.3573 37.2559ZM66.1056 38.7667C65.1423 39.1351 64.0304 39.3219 62.766 39.3219V39.7827C64.0753 39.7827 65.2446 39.5893 66.2702 39.1972L66.1056 38.7667ZM71.903 24.3951L72.0567 24.5669L72.0615 24.5624L71.903 24.3951ZM82.4757 25.2506L82.3156 25.4163L82.317 25.4176L82.4757 25.2506ZM83.2654 30.9537L83.463 31.0723L83.4643 31.0701L83.2654 30.9537ZM81.6641 32.3576L81.5628 32.1506L81.4337 32.2138V32.3576H81.6641ZM81.6641 32.4234H81.4337V32.5733L81.5708 32.634L81.6641 32.4234ZM82.8486 39.0039L82.9852 39.1896L82.9886 39.1869L82.8486 39.0039ZM80.6551 39.5523H80.4247V39.7827H80.6551V39.5523ZM80.1945 34.0904L80.3709 33.9422L80.1945 34.0904ZM74.3817 33.542V33.3116H74.1513V33.542H74.3817ZM73.6359 39.0039L73.4994 38.8182L73.4967 38.8202L73.6359 39.0039ZM71.4862 39.5523H71.2558V39.7827H71.4862V39.5523ZM80.2822 30.4492L80.4482 30.609L80.4511 30.606L80.2822 30.4492ZM74.3817 26.5009V26.2705H74.1513V26.5009H74.3817ZM74.3817 31.0414H74.1513V31.2719H74.3817V31.0414ZM71.7166 25.3383C71.7166 25.0222 71.8287 24.7707 72.0566 24.5668L71.7494 24.2234C71.4216 24.5167 71.2558 24.894 71.2558 25.3383H71.7166ZM72.0615 24.5624C72.2917 24.3442 72.5838 24.2307 72.9559 24.2307V23.7699C72.4798 23.7699 72.07 23.9195 71.7445 24.2278L72.0615 24.5624ZM72.9559 24.2307H78.8126V23.7699H72.9559V24.2307ZM78.8126 24.2307C80.3517 24.2307 81.5081 24.6361 82.3156 25.4163L82.6358 25.0849C81.7178 24.198 80.4321 23.7699 78.8126 23.7699V24.2307ZM82.317 25.4176C83.1379 26.1975 83.5614 27.3007 83.5614 28.7602H84.0223C84.0223 27.2073 83.5683 25.9707 82.6344 25.0835L82.317 25.4176ZM83.5614 28.7602C83.5614 29.5919 83.3924 30.2807 83.0666 30.8373L83.4643 31.0701C83.8403 30.4276 84.0223 29.6541 84.0223 28.7602H83.5614ZM83.0678 30.8352C82.7434 31.3759 82.2463 31.8158 81.5628 32.1506L81.7655 32.5645C82.5151 32.1973 83.0855 31.7014 83.463 31.0722L83.0678 30.8352ZM81.4337 32.3576V32.4234H81.8945V32.3576H81.4337ZM81.5708 32.634C82.1759 32.9022 82.6194 33.2852 82.9138 33.7804C83.2094 34.2776 83.364 34.9033 83.364 35.6698H83.8248C83.8248 34.8422 83.6577 34.1299 83.3099 33.5449C82.9609 32.958 82.4392 32.5148 81.7575 32.2127L81.5708 32.634ZM83.364 35.6698V37.3807H83.8248V35.6698H83.364ZM83.364 37.3807C83.364 38.0208 83.1414 38.49 82.7087 38.8209L82.9886 39.1869C83.5503 38.7574 83.8248 38.1444 83.8248 37.3807H83.364ZM82.7121 38.8183C82.2712 39.1425 81.597 39.3219 80.6551 39.3219V39.7827C81.6436 39.7827 82.4317 39.5965 82.9851 39.1895L82.7121 38.8183ZM80.8855 39.5523V35.8014H80.4247V39.5523H80.8855ZM80.8855 35.8014C80.8855 35.0036 80.7289 34.3684 80.3709 33.9422L80.0181 34.2386C80.2743 34.5437 80.4247 35.049 80.4247 35.8014H80.8855ZM80.3709 33.9422C80.0071 33.5091 79.4645 33.3116 78.7906 33.3116V33.7725C79.3744 33.7725 79.7677 33.9405 80.0181 34.2386L80.3709 33.9422ZM78.7906 33.3116H74.3817V33.7725H78.7906V33.3116ZM74.1513 33.542V37.3807H74.6121V33.542H74.1513ZM74.1513 37.3807C74.1513 38.0374 73.9275 38.5035 73.4994 38.8183L73.7724 39.1895C74.3387 38.7731 74.6121 38.1571 74.6121 37.3807H74.1513ZM73.4967 38.8202C73.0713 39.1426 72.4133 39.3219 71.4862 39.3219V39.7827C72.4602 39.7827 73.2353 39.5964 73.775 39.1876L73.4967 38.8202ZM71.7166 39.5523V25.3383H71.2558V39.5523H71.7166ZM78.659 31.2719C79.405 31.2719 80.0132 31.0607 80.4482 30.609L80.1163 30.2894C79.7908 30.6273 79.3168 30.811 78.659 30.811V31.2719ZM80.4511 30.606C80.8818 30.1421 81.0829 29.5091 81.0829 28.7383H80.6221C80.6221 29.4297 80.443 29.9374 80.1134 30.2924L80.4511 30.606ZM81.0829 28.7383C81.0829 27.9581 80.8917 27.3304 80.4687 26.8989C80.0448 26.4666 79.4269 26.2705 78.659 26.2705V26.7313C79.3535 26.7313 79.8323 26.9081 80.1396 27.2215C80.4478 27.5358 80.6221 28.0268 80.6221 28.7383H81.0829ZM78.659 26.2705H74.3817V26.7313H78.659V26.2705ZM74.1513 26.5009V31.0414H74.6121V26.5009H74.1513ZM74.3817 31.2719H78.659V30.811H74.3817V31.2719ZM86.5764 24.3951L86.4222 24.2238L86.4179 24.2278L86.5764 24.3951ZM97.4124 24.0003H97.6428V23.7699H97.4124V24.0003ZM96.9517 25.9306L96.7674 25.7923L96.7666 25.7934L96.9517 25.9306ZM89.099 26.5228V26.2924H88.8685V26.5228H89.099ZM89.099 30.3395H88.8685V30.5699H89.099V30.3395ZM94.9337 30.3395H95.1641V30.1091H94.9337V30.3395ZM94.4731 32.2698L94.2887 32.1316L94.2879 32.1327L94.4731 32.2698ZM89.099 32.8621V32.6316H88.8685V32.8621H89.099ZM89.099 36.8323H88.8685V37.0627H89.099V36.8323ZM97.3904 37.4465L97.2028 37.5805L97.2086 37.588L97.3904 37.4465ZM97.8511 39.3549V39.5853H98.0815V39.3549H97.8511ZM86.5764 38.982L86.4177 39.1495L86.4272 39.1575L86.5764 38.982ZM86.3901 25.3383C86.3901 25.0392 86.5005 24.7844 86.7349 24.5624L86.4179 24.2278C86.0966 24.5323 85.9292 24.9062 85.9292 25.3383H86.3901ZM86.7305 24.5664C86.9789 24.3429 87.2742 24.2307 87.6293 24.2307V23.7699C87.1655 23.7699 86.7589 23.9209 86.4223 24.2238L86.7305 24.5664ZM87.6293 24.2307H97.4124V23.7699H87.6293V24.2307ZM97.182 24.0003C97.182 24.8598 97.0298 25.4424 96.7674 25.7923L97.1361 26.0688C97.4878 25.5998 97.6428 24.8955 97.6428 24.0003H97.182ZM96.7666 25.7934C96.5323 26.1096 96.1327 26.2924 95.504 26.2924V26.7532C96.2207 26.7532 96.7862 26.5411 97.1369 26.0677L96.7666 25.7934ZM95.504 26.2924H89.099V26.7532H95.504V26.2924ZM88.8685 26.5228V30.3395H89.3294V26.5228H88.8685ZM89.099 30.5699H94.9337V30.1091H89.099V30.5699ZM94.7033 30.3395C94.7033 31.1991 94.5512 31.7817 94.2887 32.1316L94.6574 32.4081C95.0091 31.9391 95.1641 31.2348 95.1641 30.3395H94.7033ZM94.2879 32.1327C94.0537 32.4489 93.654 32.6316 93.0253 32.6316V33.0925C93.742 33.0925 94.3075 32.8804 94.6582 32.407L94.2879 32.1327ZM93.0253 32.6316H89.099V33.0925H93.0253V32.6316ZM88.8685 32.8621V36.8323H89.3294V32.8621H88.8685ZM89.099 37.0627H95.9647V36.6019H89.099V37.0627ZM95.9647 37.0627C96.5735 37.0627 96.9666 37.2495 97.2029 37.5804L97.5779 37.3126C97.2294 36.8246 96.6719 36.6019 95.9647 36.6019V37.0627ZM97.2086 37.588C97.4681 37.9216 97.6207 38.4942 97.6207 39.3549H98.0815C98.0815 38.4607 97.927 37.761 97.5723 37.305L97.2086 37.588ZM97.8511 39.1244H87.6293V39.5853H97.8511V39.1244ZM87.6293 39.1244C87.2706 39.1244 86.9735 39.0171 86.7256 38.8064L86.4272 39.1575C86.7642 39.444 87.1691 39.5853 87.6293 39.5853V39.1244ZM86.7349 38.8147C86.5026 38.5947 86.3901 38.3333 86.3901 38.0168H85.9292C85.9292 38.4608 86.0945 38.8428 86.4179 39.1492L86.7349 38.8147ZM86.3901 38.0168V25.3383H85.9292V38.0168H86.3901ZM100.977 39.5523L100.95 39.7811L101.118 39.8007L101.187 39.6464L100.977 39.5523ZM99.4851 38.8942L99.3188 39.0538L99.3221 39.0571L99.4851 38.8942ZM99.2657 36.1962L99.4757 36.291L99.4767 36.2889L99.2657 36.1962ZM104.289 24.768L104.5 24.8607L104.5 24.8593L104.289 24.768ZM107.162 24.768L106.951 24.8593L106.951 24.8607L107.162 24.768ZM112.186 36.1962L112.398 36.1062L112.396 36.1035L112.186 36.1962ZM111.944 38.8942L111.781 38.7313L111.778 38.7347L111.944 38.8942ZM110.453 39.5523L110.242 39.6454L110.31 39.8003L110.479 39.7812L110.453 39.5523ZM108.61 35.3846L108.821 35.2914L108.76 35.1542H108.61V35.3846ZM102.841 35.3846V35.1542H102.692L102.631 35.2905L102.841 35.3846ZM107.711 32.884V33.1144H108.052L107.925 32.7982L107.711 32.884ZM105.298 26.8738L105.512 26.7879L105.425 26.5713L105.209 26.6611L105.298 26.8738ZM105.035 26.9834L104.946 26.7708L104.739 26.8571L104.82 27.0666L105.035 26.9834ZM105.561 28.3434L105.775 28.4301L105.809 28.3454L105.776 28.2602L105.561 28.3434ZM103.719 32.884L103.505 32.7974L103.376 33.1144H103.719V32.884ZM101.003 39.3234C100.414 39.2549 99.9692 39.0525 99.648 38.7313L99.3221 39.0571C99.7321 39.4671 100.282 39.7034 100.95 39.7811L101.003 39.3234ZM99.6513 38.7347C99.3457 38.4163 99.189 38.0148 99.189 37.5123H98.7282C98.7282 38.1212 98.9226 38.641 99.3189 39.0538L99.6513 38.7347ZM99.189 37.5123C99.189 37.1261 99.2821 36.7197 99.4757 36.291L99.0557 36.1014C98.8398 36.5794 98.7282 37.0504 98.7282 37.5123H99.189ZM99.4767 36.2889L104.5 24.8607L104.078 24.6753L99.0548 36.1035L99.4767 36.2889ZM104.5 24.8593C104.625 24.5699 104.79 24.3673 104.987 24.2358C105.184 24.1046 105.43 24.0333 105.737 24.0333V23.5724C105.356 23.5724 105.017 23.662 104.731 23.8524C104.446 24.0427 104.23 24.3227 104.077 24.6767L104.5 24.8593ZM105.737 24.0333C106.035 24.0333 106.275 24.1041 106.468 24.2349C106.662 24.3662 106.825 24.569 106.951 24.8593L107.374 24.6766C107.221 24.3236 107.008 24.0438 106.727 23.8533C106.445 23.6625 106.111 23.5724 105.737 23.5724V24.0333ZM106.951 24.8607L111.975 36.2889L112.396 36.1035L107.373 24.6753L106.951 24.8607ZM111.973 36.2862C112.17 36.7491 112.262 37.1567 112.262 37.5123H112.723C112.723 37.0782 112.611 36.6084 112.398 36.1062L111.973 36.2862ZM112.262 37.5123C112.262 38.0119 112.1 38.4124 111.781 38.7313L112.107 39.0571C112.519 38.6449 112.723 38.1241 112.723 37.5123H112.262ZM111.778 38.7347C111.474 39.0517 111.032 39.2546 110.427 39.3233L110.479 39.7812C111.16 39.7037 111.713 39.4679 112.11 39.0538L111.778 38.7347ZM110.663 39.4591L108.821 35.2914L108.399 35.4778L110.242 39.6454L110.663 39.4591ZM108.61 35.1542H102.841V35.615H108.61V35.1542ZM102.631 35.2905L100.766 39.4582L101.187 39.6464L103.051 35.4787L102.631 35.2905ZM107.925 32.7982L105.512 26.7879L105.084 26.9596L107.497 32.9698L107.925 32.7982ZM105.209 26.6611L104.946 26.7708L105.123 27.1961L105.387 27.0865L105.209 26.6611ZM104.82 27.0666L105.346 28.4266L105.776 28.2602L105.25 26.9003L104.82 27.0666ZM105.348 28.2568L103.505 32.7974L103.932 32.9706L105.775 28.4301L105.348 28.2568ZM103.719 33.1144H107.711V32.6536H103.719V33.1144ZM116.75 26.5447H116.98V26.3143H116.75V26.5447ZM111.463 26.5447H111.233V26.7751H111.463V26.5447ZM124.975 24.0003H125.206V23.7699H124.975V24.0003ZM119.689 26.5447V26.3143H119.459V26.5447H119.689ZM118.943 39.0039L119.08 39.1896L119.083 39.1869L118.943 39.0039ZM116.75 39.5523H116.519V39.7827H116.75V39.5523ZM116.75 26.3143H111.463V26.7751H116.75V26.3143ZM111.694 26.5447C111.694 25.7267 111.879 25.1562 112.21 24.791C112.537 24.4301 113.041 24.2307 113.767 24.2307V23.7699C112.957 23.7699 112.309 23.9945 111.868 24.4818C111.431 24.9647 111.233 25.6664 111.233 26.5447H111.694ZM113.767 24.2307H124.975V23.7699H113.767V24.2307ZM124.745 24.0003C124.745 24.8178 124.558 25.3879 124.224 25.7532C123.894 26.1145 123.384 26.3143 122.65 26.3143V26.7751C123.466 26.7751 124.119 26.5509 124.564 26.064C125.006 25.5811 125.206 24.8791 125.206 24.0003H124.745ZM122.65 26.3143H119.689V26.7751H122.65V26.3143ZM119.459 26.5447V37.3807H119.919V26.5447H119.459ZM119.459 37.3807C119.459 38.0208 119.236 38.49 118.803 38.8209L119.083 39.1869C119.645 38.7574 119.919 38.1444 119.919 37.3807H119.459ZM118.807 38.8183C118.366 39.1425 117.692 39.3219 116.75 39.3219V39.7827C117.738 39.7827 118.526 39.5965 119.08 39.1895L118.807 38.8183ZM116.98 39.5523V26.5447H116.519V39.5523H116.98ZM127.276 24.3951L127.122 24.2238L127.118 24.2278L127.276 24.3951ZM138.112 24.0003H138.343V23.7699H138.112V24.0003ZM137.652 25.9306L137.467 25.7923L137.467 25.7934L137.652 25.9306ZM129.799 26.5228V26.2924H129.568V26.5228H129.799ZM129.799 30.3395H129.568V30.5699H129.799V30.3395ZM135.634 30.3395H135.864V30.1091H135.634V30.3395ZM135.173 32.2698L134.989 32.1316L134.988 32.1327L135.173 32.2698ZM129.799 32.8621V32.6316H129.568V32.8621H129.799ZM129.799 36.8323H129.568V37.0627H129.799V36.8323ZM138.09 37.4465L137.903 37.5805L137.909 37.588L138.09 37.4465ZM138.551 39.3549V39.5853H138.781V39.3549H138.551ZM127.276 38.982L127.118 39.1495L127.127 39.1575L127.276 38.982ZM127.09 25.3383C127.09 25.0392 127.2 24.7844 127.435 24.5624L127.118 24.2278C126.797 24.5323 126.629 24.9062 126.629 25.3383H127.09ZM127.431 24.5664C127.679 24.3429 127.974 24.2307 128.329 24.2307V23.7699C127.865 23.7699 127.459 23.9209 127.122 24.2238L127.431 24.5664ZM128.329 24.2307H138.112V23.7699H128.329V24.2307ZM137.882 24.0003C137.882 24.8598 137.73 25.4424 137.467 25.7923L137.836 26.0688C138.188 25.5998 138.343 24.8955 138.343 24.0003H137.882ZM137.467 25.7934C137.232 26.1096 136.833 26.2924 136.204 26.2924V26.7532C136.921 26.7532 137.486 26.5411 137.837 26.0677L137.467 25.7934ZM136.204 26.2924H129.799V26.7532H136.204V26.2924ZM129.568 26.5228V30.3395H130.029V26.5228H129.568ZM129.799 30.5699H135.634V30.1091H129.799V30.5699ZM135.403 30.3395C135.403 31.1991 135.251 31.7817 134.989 32.1316L135.357 32.4081C135.709 31.9391 135.864 31.2348 135.864 30.3395H135.403ZM134.988 32.1327C134.754 32.4489 134.354 32.6316 133.725 32.6316V33.0925C134.442 33.0925 135.007 32.8804 135.358 32.407L134.988 32.1327ZM133.725 32.6316H129.799V33.0925H133.725V32.6316ZM129.568 32.8621V36.8323H130.029V32.8621H129.568ZM129.799 37.0627H136.665V36.6019H129.799V37.0627ZM136.665 37.0627C137.273 37.0627 137.667 37.2495 137.903 37.5804L138.278 37.3126C137.929 36.8246 137.372 36.6019 136.665 36.6019V37.0627ZM137.909 37.588C138.168 37.9216 138.321 38.4942 138.321 39.3549H138.781C138.781 38.4607 138.627 37.761 138.272 37.305L137.909 37.588ZM138.551 39.1244H128.329V39.5853H138.551V39.1244ZM128.329 39.1244C127.971 39.1244 127.673 39.0171 127.426 38.8064L127.127 39.1575C127.464 39.444 127.869 39.5853 128.329 39.5853V39.1244ZM127.435 38.8147C127.203 38.5947 127.09 38.3333 127.09 38.0168H126.629C126.629 38.4608 126.794 38.8428 127.118 39.1492L127.435 38.8147ZM127.09 38.0168V25.3383H126.629V38.0168H127.09Z" fill="#2D2D2E"/>
</svg>
